<svg width="5" height="15" viewBox="0 0 5 15" fill="none" xmlns="http://www.w3.org/2000/svg">
<path d="M4.27713 0.815999L3.49313 9.152H1.55713V0.544L4.27713 0.815999ZM2.37313 10.736C2.63979 10.736 2.87446 10.7893 3.07713 10.896C3.29046 11.0027 3.46646 11.1413 3.60513 11.312C3.75446 11.472 3.86646 11.6533 3.94113 11.856C4.01579 12.048 4.05313 12.2347 4.05313 12.416C4.05313 12.6507 4.00513 12.8747 3.90913 13.088C3.82379 13.3013 3.70113 13.488 3.54113 13.648C3.39179 13.808 3.21046 13.936 2.99713 14.032C2.79446 14.128 2.58113 14.176 2.35713 14.176C2.06913 14.176 1.81846 14.128 1.60513 14.032C1.39179 13.9467 1.21579 13.8293 1.07713 13.68C0.938458 13.52 0.831792 13.344 0.757125 13.152C0.693125 12.96 0.661125 12.7627 0.661125 12.56C0.661125 12.3467 0.698458 12.1333 0.773125 11.92C0.847792 11.696 0.954458 11.4987 1.09313 11.328C1.24246 11.1467 1.42379 11.0027 1.63713 10.896C1.85046 10.7893 2.09579 10.736 2.37313 10.736Z" fill="#FF9255"/>
</svg>
