<svg xmlns="http://www.w3.org/2000/svg" width="32" height="33" viewBox="0 0 32 33">
    <g fill="none" fill-rule="evenodd">
        <g>
            <g>
                <g>
                    <g>
                        <g>
                            <g>
                                <g>
                                    <g>
                                        <g transform="translate(-752.000000, -4297.000000) translate(166.000000, 2282.000000) translate(1.000000, 1854.500000) translate(553.000000, 170.000000) translate(0.000000, -259.000000) translate(0.000000, 129.000000) translate(20.000000, 0.000000) translate(0.000000, 110.000000) translate(12.000000, 11.000000)">
                                            <circle cx="16" cy="16" r="16" fill="#FEE500"/>
                                            <path fill="#FFF" fill-opacity="0" d="M8 8H24V24H8z"/>
                                            <path fill="#1A1A1A" fill-rule="nonzero" d="M16 9.19c-4.234 0-7.667 2.724-7.667 6.083 0 2.172 1.436 4.08 3.594 5.154-.117.408-.755 2.622-.78 2.796 0 0-.015.13.069.18.057.03.123.033.183.012.241-.034 2.8-1.84 3.243-2.152.45.063.904.094 1.358.093 4.234 0 7.667-2.723 7.667-6.083 0-3.36-3.433-6.083-7.667-6.083z"/>
                                        </g>
                                    </g>
                                </g>
                            </g>
                        </g>
                    </g>
                </g>
            </g>
        </g>
    </g>
</svg>
