<svg width="130" height="21" viewBox="0 0 130 21" fill="none" xmlns="http://www.w3.org/2000/svg">
<path d="M6.80047 8.58C6.7338 8.36667 6.58047 8.2 6.34047 8.08C6.1138 7.94667 5.86714 7.88 5.60047 7.88C5.20047 7.88 4.90047 7.95333 4.70047 8.1C4.50047 8.23333 4.40047 8.41333 4.40047 8.64C4.40047 8.77333 4.46714 8.89333 4.60047 9C4.74714 9.10667 4.9338 9.21333 5.16047 9.32C5.40047 9.41333 5.6738 9.50667 5.98047 9.6C6.30047 9.69333 6.64047 9.78667 7.00047 9.88C8.06714 10.16 8.8938 10.5333 9.48047 11C10.0805 11.4667 10.3805 12.1467 10.3805 13.04C10.3805 13.5467 10.2671 14.02 10.0405 14.46C9.8138 14.8867 9.4938 15.26 9.08047 15.58C8.66714 15.9 8.16714 16.1467 7.58047 16.32C7.00714 16.5067 6.36047 16.6 5.64047 16.6C4.7338 16.6 3.96047 16.4733 3.32047 16.22C2.6938 15.9667 2.18047 15.66 1.78047 15.3C1.3938 14.9267 1.1138 14.5333 0.940469 14.12C0.767135 13.6933 0.680469 13.3133 0.680469 12.98C0.680469 12.7133 0.813802 12.58 1.08047 12.58H3.54047C3.80714 12.58 3.98047 12.6867 4.06047 12.9C4.28714 13.5 4.7738 13.8 5.52047 13.8C5.9338 13.8 6.24714 13.7333 6.46047 13.6C6.6738 13.4533 6.78047 13.2667 6.78047 13.04C6.78047 12.8933 6.72047 12.7733 6.60047 12.68C6.48047 12.5733 6.3138 12.48 6.10047 12.4C5.90047 12.32 5.66047 12.2467 5.38047 12.18C5.10047 12.1 4.80047 12.0133 4.48047 11.92C3.8938 11.7467 3.3738 11.5667 2.92047 11.38C2.46714 11.18 2.08047 10.9533 1.76047 10.7C1.4538 10.4467 1.2138 10.16 1.04047 9.84C0.880469 9.50667 0.800469 9.12 0.800469 8.68C0.800469 8.16 0.907135 7.68 1.12047 7.24C1.34714 6.8 1.6538 6.42 2.04047 6.1C2.44047 5.78 2.90714 5.53333 3.44047 5.36C3.98714 5.17333 4.58714 5.08 5.24047 5.08C5.74714 5.08 6.26047 5.13333 6.78047 5.24C7.3138 5.33333 7.80047 5.50667 8.24047 5.76C8.68047 6.01333 9.04714 6.36 9.34047 6.8C9.64714 7.24 9.8338 7.80667 9.90047 8.5C9.9138 8.64667 9.88047 8.75333 9.80047 8.82C9.72047 8.87333 9.62047 8.9 9.50047 8.9H7.32047C7.0538 8.9 6.88047 8.79333 6.80047 8.58ZM15.6342 11.68V11.98C15.6342 12.4867 15.7809 12.8933 16.0742 13.2C16.3676 13.5067 16.8342 13.66 17.4742 13.66C17.9409 13.66 18.3076 13.6 18.5742 13.48C18.8409 13.36 18.9942 13.1467 19.0342 12.84C19.0609 12.7067 19.1009 12.6067 19.1542 12.54C19.2076 12.4733 19.3076 12.44 19.4542 12.44H22.3942C22.6609 12.44 22.7942 12.5733 22.7942 12.84V13.12C22.7942 13.64 22.6609 14.1133 22.3942 14.54C22.1409 14.9667 21.7742 15.3333 21.2942 15.64C20.8276 15.9467 20.2609 16.18 19.5942 16.34C18.9276 16.5133 18.1876 16.6 17.3742 16.6C16.6009 16.6 15.8742 16.5067 15.1942 16.32C14.5142 16.1467 13.9209 15.8667 13.4142 15.48C12.9076 15.0933 12.5076 14.5933 12.2142 13.98C11.9209 13.3533 11.7742 12.6 11.7742 11.72V9.98C11.7742 9.1 11.9142 8.35333 12.1942 7.74C12.4876 7.11333 12.8876 6.60667 13.3942 6.22C13.9142 5.83333 14.5209 5.55333 15.2142 5.38C15.9076 5.19333 16.6676 5.1 17.4942 5.1C18.3076 5.1 19.0476 5.19333 19.7142 5.38C20.3942 5.56667 20.9742 5.84 21.4542 6.2C21.9476 6.54667 22.3276 6.97333 22.5942 7.48C22.8609 7.98667 22.9942 8.55333 22.9942 9.18V11.26C22.9942 11.54 22.8542 11.68 22.5742 11.68H15.6342ZM17.4742 7.94C16.9409 7.94 16.5009 8.08667 16.1542 8.38C15.8209 8.67333 15.6476 9.07333 15.6342 9.58H19.2342C19.2209 9.07333 19.0609 8.67333 18.7542 8.38C18.4476 8.08667 18.0209 7.94 17.4742 7.94ZM28.2514 11.68V11.98C28.2514 12.4867 28.3981 12.8933 28.6914 13.2C28.9847 13.5067 29.4514 13.66 30.0914 13.66C30.5581 13.66 30.9247 13.6 31.1914 13.48C31.4581 13.36 31.6114 13.1467 31.6514 12.84C31.6781 12.7067 31.7181 12.6067 31.7714 12.54C31.8247 12.4733 31.9247 12.44 32.0714 12.44H35.0114C35.2781 12.44 35.4114 12.5733 35.4114 12.84V13.12C35.4114 13.64 35.2781 14.1133 35.0114 14.54C34.7581 14.9667 34.3914 15.3333 33.9114 15.64C33.4447 15.9467 32.8781 16.18 32.2114 16.34C31.5447 16.5133 30.8047 16.6 29.9914 16.6C29.2181 16.6 28.4914 16.5067 27.8114 16.32C27.1314 16.1467 26.5381 15.8667 26.0314 15.48C25.5247 15.0933 25.1247 14.5933 24.8314 13.98C24.5381 13.3533 24.3914 12.6 24.3914 11.72V9.98C24.3914 9.1 24.5314 8.35333 24.8114 7.74C25.1047 7.11333 25.5047 6.60667 26.0114 6.22C26.5314 5.83333 27.1381 5.55333 27.8314 5.38C28.5247 5.19333 29.2847 5.1 30.1114 5.1C30.9247 5.1 31.6647 5.19333 32.3314 5.38C33.0114 5.56667 33.5914 5.84 34.0714 6.2C34.5647 6.54667 34.9447 6.97333 35.2114 7.48C35.4781 7.98667 35.6114 8.55333 35.6114 9.18V11.26C35.6114 11.54 35.4714 11.68 35.1914 11.68H28.2514ZM30.0914 7.94C29.5581 7.94 29.1181 8.08667 28.7714 8.38C28.4381 8.67333 28.2647 9.07333 28.2514 9.58H31.8514C31.8381 9.07333 31.6781 8.67333 31.3714 8.38C31.0647 8.08667 30.6381 7.94 30.0914 7.94ZM39.7031 5.4C39.9565 5.4 40.1098 5.50667 40.1631 5.72L41.3831 9.7C41.4498 9.88667 41.4431 10.0733 41.3631 10.26L39.8431 14.28C39.7765 14.4267 39.6831 14.5 39.5631 14.5C39.4565 14.5 39.3698 14.4267 39.3031 14.28L36.0631 5.86C35.9298 5.55333 36.0298 5.4 36.3631 5.4H39.7031ZM43.7431 5.72C43.8365 5.50667 44.0031 5.4 44.2431 5.4H47.3431C47.5031 5.4 47.6098 5.44667 47.6631 5.54C47.7298 5.62 47.7298 5.73333 47.6631 5.88L42.3431 19.68C42.3431 19.96 42.2098 20.1 41.9431 20.1H38.8431C38.5765 20.1 38.4431 19.96 38.4431 19.68L43.7431 5.72ZM53.5266 16.6C52.7132 16.6 51.9599 16.5067 51.2666 16.32C50.5866 16.1467 49.9999 15.8667 49.5066 15.48C49.0132 15.0933 48.6266 14.5933 48.3466 13.98C48.0666 13.3533 47.9266 12.6 47.9266 11.72V9.98C47.9266 9.1 48.0666 8.35333 48.3466 7.74C48.6266 7.11333 49.0132 6.60667 49.5066 6.22C49.9999 5.83333 50.5866 5.55333 51.2666 5.38C51.9599 5.19333 52.7132 5.1 53.5266 5.1C54.3399 5.1 55.0932 5.19333 55.7866 5.38C56.4799 5.55333 57.0732 5.83333 57.5666 6.22C58.0599 6.60667 58.4466 7.11333 58.7266 7.74C59.0066 8.35333 59.1466 9.1 59.1466 9.98V11.72C59.1466 12.6 59.0066 13.3533 58.7266 13.98C58.4466 14.5933 58.0599 15.0933 57.5666 15.48C57.0732 15.8667 56.4799 16.1467 55.7866 16.32C55.0932 16.5067 54.3399 16.6 53.5266 16.6ZM53.5266 13.36C53.8466 13.36 54.1132 13.3067 54.3266 13.2C54.5532 13.0933 54.7332 12.96 54.8666 12.8C54.9999 12.6267 55.0932 12.4333 55.1466 12.22C55.2132 12.0067 55.2466 11.7933 55.2466 11.58V10.12C55.2466 9.90667 55.2132 9.7 55.1466 9.5C55.0932 9.28667 54.9999 9.09333 54.8666 8.92C54.7332 8.74667 54.5532 8.60667 54.3266 8.5C54.1132 8.39333 53.8466 8.34 53.5266 8.34C53.2066 8.34 52.9332 8.39333 52.7066 8.5C52.4932 8.60667 52.3199 8.74667 52.1866 8.92C52.0532 9.09333 51.9599 9.28667 51.9066 9.5C51.8532 9.7 51.8266 9.90667 51.8266 10.12V11.58C51.8266 11.7933 51.8532 12.0067 51.9066 12.22C51.9599 12.4333 52.0532 12.6267 52.1866 12.8C52.3199 12.96 52.4932 13.0933 52.7066 13.2C52.9332 13.3067 53.2066 13.36 53.5266 13.36ZM71.8438 11.72C71.8438 12.6 71.7038 13.3533 71.4238 13.98C71.1571 14.5933 70.7771 15.0933 70.2838 15.48C69.8038 15.8667 69.2171 16.1467 68.5238 16.32C67.8438 16.5067 67.0971 16.6 66.2838 16.6C65.4704 16.6 64.7238 16.5067 64.0438 16.32C63.3638 16.1467 62.7771 15.8667 62.2838 15.48C61.8038 15.0933 61.4238 14.5933 61.1438 13.98C60.8771 13.3533 60.7438 12.6 60.7438 11.72V5.8C60.7438 5.53333 60.8771 5.4 61.1438 5.4H64.3238C64.6038 5.4 64.7438 5.53333 64.7438 5.8V11.58C64.7438 11.7933 64.7704 12.0067 64.8238 12.22C64.8771 12.4333 64.9638 12.6267 65.0838 12.8C65.2038 12.96 65.3571 13.0933 65.5438 13.2C65.7438 13.3067 65.9904 13.36 66.2838 13.36C66.5771 13.36 66.8238 13.3067 67.0238 13.2C67.2238 13.0933 67.3838 12.96 67.5038 12.8C67.6238 12.6267 67.7104 12.4333 67.7638 12.22C67.8171 12.0067 67.8438 11.7933 67.8438 11.58V5.8C67.8438 5.53333 67.9771 5.4 68.2438 5.4H71.4238C71.7038 5.4 71.8438 5.53333 71.8438 5.8V11.72ZM77.6344 15.88C77.6344 16.16 77.501 16.3 77.2344 16.3H74.0344C73.7677 16.3 73.6344 16.16 73.6344 15.88V0.579999C73.6344 0.326666 73.7677 0.2 74.0344 0.2H77.2144C77.4944 0.2 77.6344 0.326666 77.6344 0.579999V15.88ZM83.0952 11.68V11.98C83.0952 12.4867 83.2418 12.8933 83.5352 13.2C83.8285 13.5067 84.2952 13.66 84.9352 13.66C85.4018 13.66 85.7685 13.6 86.0352 13.48C86.3018 13.36 86.4552 13.1467 86.4952 12.84C86.5218 12.7067 86.5618 12.6067 86.6152 12.54C86.6685 12.4733 86.7685 12.44 86.9152 12.44H89.8552C90.1218 12.44 90.2552 12.5733 90.2552 12.84V13.12C90.2552 13.64 90.1218 14.1133 89.8552 14.54C89.6018 14.9667 89.2352 15.3333 88.7552 15.64C88.2885 15.9467 87.7218 16.18 87.0552 16.34C86.3885 16.5133 85.6485 16.6 84.8352 16.6C84.0618 16.6 83.3352 16.5067 82.6552 16.32C81.9752 16.1467 81.3818 15.8667 80.8752 15.48C80.3685 15.0933 79.9685 14.5933 79.6752 13.98C79.3818 13.3533 79.2352 12.6 79.2352 11.72V9.98C79.2352 9.1 79.3752 8.35333 79.6552 7.74C79.9485 7.11333 80.3485 6.60667 80.8552 6.22C81.3752 5.83333 81.9818 5.55333 82.6752 5.38C83.3685 5.19333 84.1285 5.1 84.9552 5.1C85.7685 5.1 86.5085 5.19333 87.1752 5.38C87.8552 5.56667 88.4352 5.84 88.9152 6.2C89.4085 6.54667 89.7885 6.97333 90.0552 7.48C90.3218 7.98667 90.4552 8.55333 90.4552 9.18V11.26C90.4552 11.54 90.3152 11.68 90.0352 11.68H83.0952ZM84.9352 7.94C84.4018 7.94 83.9618 8.08667 83.6152 8.38C83.2818 8.67333 83.1085 9.07333 83.0952 9.58H86.6952C86.6818 9.07333 86.5218 8.67333 86.2152 8.38C85.9085 8.08667 85.4818 7.94 84.9352 7.94ZM92.9523 5.4V3.08C92.9523 2.82667 93.0923 2.7 93.3723 2.7H96.5523C96.819 2.7 96.9523 2.82667 96.9523 3.08V5.4H99.1323C99.4123 5.4 99.5523 5.53333 99.5523 5.8V8.46C99.5523 8.74 99.4123 8.88 99.1323 8.88H96.9523V12.08C96.9523 12.4667 97.0257 12.7267 97.1723 12.86C97.319 12.9933 97.5457 13.06 97.8523 13.06H99.1723C99.279 13.06 99.3723 13.0933 99.4523 13.16C99.5323 13.2267 99.5723 13.3333 99.5723 13.48V16.2C99.5723 16.4667 99.439 16.6 99.1723 16.6H97.8523C96.9457 16.6 96.179 16.5133 95.5523 16.34C94.939 16.1667 94.439 15.8933 94.0523 15.52C93.6657 15.1333 93.3857 14.6333 93.2123 14.02C93.039 13.4067 92.9523 12.66 92.9523 11.78V8.88H91.8723C91.5923 8.88 91.4523 8.74 91.4523 8.46V5.8C91.4523 5.53333 91.5923 5.4 91.8723 5.4H92.9523ZM101.663 5.4V3.08C101.663 2.82667 101.803 2.7 102.083 2.7H105.263C105.53 2.7 105.663 2.82667 105.663 3.08V5.4H107.843C108.123 5.4 108.263 5.53333 108.263 5.8V8.46C108.263 8.74 108.123 8.88 107.843 8.88H105.663V12.08C105.663 12.4667 105.737 12.7267 105.883 12.86C106.03 12.9933 106.257 13.06 106.563 13.06H107.883C107.99 13.06 108.083 13.0933 108.163 13.16C108.243 13.2267 108.283 13.3333 108.283 13.48V16.2C108.283 16.4667 108.15 16.6 107.883 16.6H106.563C105.657 16.6 104.89 16.5133 104.263 16.34C103.65 16.1667 103.15 15.8933 102.763 15.52C102.377 15.1333 102.097 14.6333 101.923 14.02C101.75 13.4067 101.663 12.66 101.663 11.78V8.88H100.583C100.303 8.88 100.163 8.74 100.163 8.46V5.8C100.163 5.53333 100.303 5.4 100.583 5.4H101.663ZM113.134 11.68V11.98C113.134 12.4867 113.281 12.8933 113.574 13.2C113.868 13.5067 114.334 13.66 114.974 13.66C115.441 13.66 115.808 13.6 116.074 13.48C116.341 13.36 116.494 13.1467 116.534 12.84C116.561 12.7067 116.601 12.6067 116.654 12.54C116.708 12.4733 116.808 12.44 116.954 12.44H119.894C120.161 12.44 120.294 12.5733 120.294 12.84V13.12C120.294 13.64 120.161 14.1133 119.894 14.54C119.641 14.9667 119.274 15.3333 118.794 15.64C118.328 15.9467 117.761 16.18 117.094 16.34C116.428 16.5133 115.688 16.6 114.874 16.6C114.101 16.6 113.374 16.5067 112.694 16.32C112.014 16.1467 111.421 15.8667 110.914 15.48C110.408 15.0933 110.008 14.5933 109.714 13.98C109.421 13.3533 109.274 12.6 109.274 11.72V9.98C109.274 9.1 109.414 8.35333 109.694 7.74C109.988 7.11333 110.388 6.60667 110.894 6.22C111.414 5.83333 112.021 5.55333 112.714 5.38C113.408 5.19333 114.168 5.1 114.994 5.1C115.808 5.1 116.548 5.19333 117.214 5.38C117.894 5.56667 118.474 5.84 118.954 6.2C119.448 6.54667 119.828 6.97333 120.094 7.48C120.361 7.98667 120.494 8.55333 120.494 9.18V11.26C120.494 11.54 120.354 11.68 120.074 11.68H113.134ZM114.974 7.94C114.441 7.94 114.001 8.08667 113.654 8.38C113.321 8.67333 113.148 9.07333 113.134 9.58H116.734C116.721 9.07333 116.561 8.67333 116.254 8.38C115.948 8.08667 115.521 7.94 114.974 7.94ZM125.891 15.88C125.891 16.16 125.758 16.3 125.491 16.3H122.291C122.025 16.3 121.891 16.16 121.891 15.88V5.78C121.891 5.52667 122.025 5.4 122.291 5.4H125.471C125.751 5.4 125.891 5.52667 125.891 5.78V6.32C126.478 5.8 127.065 5.48667 127.651 5.38C128.251 5.26 128.858 5.2 129.471 5.2C129.751 5.2 129.891 5.32667 129.891 5.58V8.58C129.891 8.86 129.758 9 129.491 9C129.118 9 128.771 9.01333 128.451 9.04C128.145 9.06667 127.851 9.12 127.571 9.2C127.291 9.28 127.011 9.39333 126.731 9.54C126.465 9.67333 126.185 9.86 125.891 10.1V15.88Z" fill="#009B9F"/>
</svg>
